<svg xmlns="http://www.w3.org/2000/svg" width="40.825" height="48" viewBox="0 0 40.825 48">
  <title>pointer</title>
  <path d="M33.786,43.43a4.069,4.069,0,0,0,3.233-3.521,21.678,21.678,0,0,1,1.146-4.639c1.1-3.222.593-7.894.126-10.087h0l-2.047-9.634a3.241,3.241,0,0,0-6.366,1.205l1.068,5.024-1.837-8.642a3.241,3.241,0,0,0-6.366,1.205l1.388,6.528-1.677-7.89a3.241,3.241,0,0,0-6.366,1.205L17.8,22.216,14.01,4.409A3.24,3.24,0,0,0,7.705,5.9l4.868,22.9c-2.276-1.847-4.343-3.479-4.86-3.745a3.824,3.824,0,0,0-4.488.124C1.761,26.272,1.4,28.566,3.3,30.414c0,0,4.324,4.681,7.8,8.048A41.726,41.726,0,0,0,15.85,42.3a8.934,8.934,0,0,1,1.984,1.892,4.237,4.237,0,0,0,4.273,1.725Z" fill="none" stroke="#000" stroke-linejoin="round" stroke-width="4"/>
</svg>
