<svg xmlns="http://www.w3.org/2000/svg" width="48" height="48" viewBox="0 0 48 48">
  <title>settings-2</title>
  <g>
    <path d="M46,25V23a3,3,0,0,0-3-3H41.269a1,1,0,0,1-.958-.737,16.843,16.843,0,0,0-1.429-3.446,1,1,0,0,1,.157-1.2l1.224-1.225a3,3,0,0,0,0-4.242L38.849,7.737a3,3,0,0,0-4.242,0L33.382,8.961a1,1,0,0,1-1.2.157,16.866,16.866,0,0,0-3.446-1.429A1,1,0,0,1,28,6.731V5a3,3,0,0,0-3-3H23a3,3,0,0,0-3,3V6.731a1,1,0,0,1-.737.958,16.866,16.866,0,0,0-3.446,1.429,1,1,0,0,1-1.2-.157L13.393,7.737a3,3,0,0,0-4.242,0L7.737,9.151a3,3,0,0,0,0,4.242l1.224,1.225a1,1,0,0,1,.157,1.2,16.843,16.843,0,0,0-1.429,3.446A1,1,0,0,1,6.731,20H5a3,3,0,0,0-3,3v2a3,3,0,0,0,3,3H6.731a1,1,0,0,1,.958.737,16.843,16.843,0,0,0,1.429,3.446,1,1,0,0,1-.157,1.2L7.737,34.607a3,3,0,0,0,0,4.242l1.414,1.414a3,3,0,0,0,4.242,0l1.225-1.224a1,1,0,0,1,1.2-.157,16.866,16.866,0,0,0,3.446,1.429,1,1,0,0,1,.737.958V43a3,3,0,0,0,3,3h2a3,3,0,0,0,3-3V41.269a1,1,0,0,1,.737-.958,16.866,16.866,0,0,0,3.446-1.429,1,1,0,0,1,1.2.157l1.225,1.224a3,3,0,0,0,4.242,0l1.414-1.414a3,3,0,0,0,0-4.242l-1.224-1.225a1,1,0,0,1-.157-1.2,16.843,16.843,0,0,0,1.429-3.446A1,1,0,0,1,41.269,28H43A3,3,0,0,0,46,25Z" fill="none" stroke="#000" stroke-linecap="round" stroke-linejoin="round" stroke-width="4"/>
    <circle cx="24" cy="24" r="9" fill="none" stroke="#000" stroke-linecap="round" stroke-linejoin="round" stroke-width="4"/>
  </g>
</svg>
