<svg xmlns="http://www.w3.org/2000/svg" width="47.649" height="48" viewBox="0 0 47.649 48">
  <title>sticky-note</title>
  <g>
    <path d="M32.829,29.278,43.059,28.2a2.057,2.057,0,0,0,1.831-2.261L42.955,7.527a6.172,6.172,0,0,0-6.783-5.493L7.527,5.045a6.172,6.172,0,0,0-5.493,6.783L5.045,40.473a6.172,6.172,0,0,0,6.783,5.493L30.243,44.03a2.058,2.058,0,0,0,1.831-2.261L31,31.539A2.058,2.058,0,0,1,32.829,29.278Z" fill="none" stroke="#000" stroke-linecap="round" stroke-linejoin="round" stroke-width="4"/>
    <path d="M43.705,34.341l-6.141.645.648,6.138a4.121,4.121,0,0,1-1.8,3.847.253.253,0,0,0,.172.461H36.6A12.38,12.38,0,0,0,47.582,31.865l0-.012a.254.254,0,0,0-.487-.073A4.119,4.119,0,0,1,43.705,34.341Z" opacity="0.5"/>
  </g>
</svg>
